<svg id="Layer_1" data-name="Layer 1" xmlns="http://www.w3.org/2000/svg" xmlns:xlink="http://www.w3.org/1999/xlink" viewBox="0 0 1920 1080">
  <defs>
    <style>
      .cls-1 {
        fill: red;
      }

      .cls-2 {
        fill: #c1272d;
      }

      .cls-3 {
        fill: #29abe2;
      }

      .cls-4 {
        fill: #fff;
      }

      .cls-5 {
        fill: url(#linear-gradient);
      }

      .cls-6 {
        fill: none;
        stroke: #000;
        stroke-miterlimit: 10;
        stroke-width: 4px;
      }

      .cls-7 {
        fill: url(#linear-gradient-2);
      }
    </style>
    <linearGradient id="linear-gradient" x1="679.8" y1="435.2" x2="501.08" y2="256.48" gradientTransform="matrix(0.97, -0.26, 0.26, 0.97, 12.24, 218.98)" gradientUnits="userSpaceOnUse">
      <stop offset="0" stop-color="#cce0f4"/>
      <stop offset="0" stop-color="#c3dcf2"/>
      <stop offset="0" stop-color="#a9d2ee"/>
      <stop offset="0" stop-color="#80c2e7"/>
      <stop offset="0" stop-color="#47acde"/>
      <stop offset="0" stop-color="#1e9cd7"/>
      <stop offset="0.45" stop-color="#0075be"/>
      <stop offset="0.99" stop-color="#005b97"/>
    </linearGradient>
    <linearGradient id="linear-gradient-2" x1="679.8" y1="435.21" x2="501.08" y2="256.48" gradientTransform="matrix(-0.97, -0.26, -0.26, 0.97, 1903.76, 218.98)" xlink:href="#linear-gradient"/>
  </defs>
  <rect class="cls-1" width="1920" height="1080"/>
  <path d="M960,149a389.85,389.85,0,1,1-152.19,30.73A388.47,388.47,0,0,1,960,149m0-4c-218.15,0-395,176.85-395,395S741.85,935,960,935s395-176.85,395-395S1178.15,145,960,145Z"/>
  <g>
    <circle class="cls-2" cx="1868" cy="52" r="34"/>
    <path d="M1868,20a32,32,0,1,1-32,32,32,32,0,0,1,32-32m0-4a36,36,0,1,0,36,36,36,36,0,0,0-36-36Z"/>
  </g>
  <g>
    <circle class="cls-3" cx="1868" cy="52" r="20"/>
    <path d="M1868,34a18,18,0,1,1-18,18,18,18,0,0,1,18-18m0-4a22,22,0,1,0,22,22,22,22,0,0,0-22-22Z"/>
  </g>
  <g>
    <g>
      <path class="cls-4" d="M723,635.66c-25.75,0-55.22-20.91-83-58.88C611.8,538.17,587.7,485,572.16,427c-16.81-62.74-22.07-124.51-14.81-174,7.18-48.86,25.66-79.66,52-86.73a45.48,45.48,0,0,1,11.73-1.53c25.75,0,55.23,20.92,83,58.89,28.22,38.6,52.32,91.8,67.86,149.78,16.81,62.74,22.07,124.52,14.81,174-7.18,48.86-25.66,79.66-52,86.73A45.12,45.12,0,0,1,723,635.66Z"/>
      <path d="M621.14,162.78v4h0c25.1,0,54,20.63,81.37,58.07,28.08,38.41,52.07,91.37,67.54,149.12,16.74,62.48,22,124,14.76,173.14-3.47,23.65-9.63,43.08-18.31,57.76s-19.57,23.93-32.27,27.33A43.28,43.28,0,0,1,723,633.66c-25.1,0-54-20.62-81.37-58.07-28.08-38.41-52.07-91.37-67.55-149.12-16.74-62.48-22-124-14.76-173.14,3.48-23.65,9.64-43.08,18.32-57.76s19.56-23.92,32.26-27.33a43.77,43.77,0,0,1,11.22-1.46v-4m0,0a47.29,47.29,0,0,0-12.25,1.6c-56.25,15.07-73.55,132.88-38.65,263.13C602.65,548.5,668.7,637.66,723,637.66a46.88,46.88,0,0,0,12.26-1.6c56.24-15.07,73.54-132.87,38.64-263.13-32.42-121-98.47-210.16-152.78-210.15Z"/>
    </g>
    <g>
      <path class="cls-5" d="M706.75,560.12c-17.41,0-37.37-14.16-56.21-39.87-19.23-26.25-35.65-62.43-46.22-101.88-11.44-42.69-15-84.72-10-118.36,4.9-33.06,17.4-53.89,35.19-58.66a30.63,30.63,0,0,1,7.9-1c17.41,0,37.37,14.16,56.21,39.87,19.23,26.25,35.64,62.43,46.21,101.88,11.44,42.69,15,84.73,10,118.36-4.9,33.06-17.39,53.89-35.19,58.66A30.55,30.55,0,0,1,706.75,560.12Z"/>
      <path d="M637.41,238.32v4c16.75,0,36.13,13.87,54.59,39.06,19.08,26.05,35.38,62,45.89,101.21,11.37,42.43,14.91,84.18,10,117.55-2.36,16-6.53,29.06-12.39,38.94s-13,15.84-21.34,18.08a28.27,28.27,0,0,1-7.37,1c-16.76,0-36.15-13.87-54.6-39-19.09-26.05-35.39-62-45.89-101.21-11.38-42.44-14.91-84.19-10-117.55,2.37-16,6.54-29.07,12.4-38.94s13-15.85,21.33-18.09a28.78,28.78,0,0,1,7.38-1v-4m0,0a32.14,32.14,0,0,0-8.41,1.1c-38.49,10.31-50.39,90.66-26.6,179.47,22.1,82.47,67.21,143.23,104.36,143.23a32.25,32.25,0,0,0,8.41-1.1c38.48-10.31,50.39-90.66,26.59-179.47-22.1-82.47-67.21-143.23-104.35-143.23Z"/>
    </g>
    <line class="cls-6" x1="575.59" y1="426.07" x2="602.39" y2="418.89"/>
    <line class="cls-6" x1="741.03" y1="378.87" x2="767.83" y2="371.69"/>
  </g>
  <g>
    <g>
      <path class="cls-4" d="M1193,635.66a45.5,45.5,0,0,1-11.74-1.53c-26.38-7.07-44.86-37.87-52-86.73-7.26-49.43-2-111.21,14.81-173.95,15.54-58,39.64-111.18,67.86-149.78,27.76-38,57.24-58.89,83-58.89a45.48,45.48,0,0,1,11.73,1.53c26.39,7.07,44.87,37.87,52.05,86.73,7.26,49.44,2,111.21-14.81,174-15.54,58-39.64,111.18-67.87,149.79-27.76,38-57.22,58.88-83,58.88Z"/>
      <path d="M1294.87,166.78a43.33,43.33,0,0,1,11.22,1.46c12.7,3.41,23.55,12.6,32.26,27.33s14.84,34.11,18.32,57.76c7.22,49.17,2,110.66-14.76,173.14-15.48,57.75-39.47,110.71-67.55,149.12C1247,613,1218.09,633.66,1193,633.66a43.28,43.28,0,0,1-11.22-1.46c-12.7-3.4-23.56-12.6-32.27-27.33s-14.84-34.11-18.31-57.76c-7.22-49.17-2-110.66,14.76-173.14,15.47-57.75,39.46-110.71,67.55-149.12,27.37-37.45,56.27-58.07,81.37-58.07m0-4c-54.31,0-120.36,89.16-152.78,210.15-34.9,130.26-17.6,248.06,38.64,263.13a46.88,46.88,0,0,0,12.26,1.6c54.31,0,120.36-89.16,152.78-210.15,34.9-130.25,17.6-248.06-38.65-263.13a47.29,47.29,0,0,0-12.25-1.6Z"/>
    </g>
    <g>
      <path class="cls-7" d="M1209.26,560.12a30.57,30.57,0,0,1-7.9-1c-17.8-4.77-30.29-25.6-35.19-58.66-5-33.63-1.43-75.67,10-118.36,10.57-39.45,27-75.63,46.21-101.88,18.84-25.71,38.8-39.87,56.21-39.87a30.63,30.63,0,0,1,7.9,1c17.79,4.77,30.29,25.6,35.19,58.66,5,33.64,1.43,75.67-10,118.36-10.57,39.45-27,75.63-46.22,101.88-18.84,25.71-38.79,39.87-56.2,39.87Z"/>
      <path d="M1278.6,242.32a28.84,28.84,0,0,1,7.38,1c8.36,2.24,15.54,8.33,21.33,18.09s10,23,12.4,38.94c4.94,33.36,1.41,75.11-10,117.55-10.5,39.21-26.8,75.16-45.89,101.21-18.45,25.18-37.84,39-54.6,39a28.27,28.27,0,0,1-7.37-1c-8.37-2.24-15.54-8.33-21.34-18.08s-10-23-12.39-38.94c-5-33.37-1.41-75.12,10-117.55,10.51-39.22,26.81-75.16,45.9-101.22,18.45-25.18,37.84-39.05,54.59-39.05m0-4c-37.14,0-82.25,60.76-104.35,143.23-23.8,88.81-11.89,169.16,26.59,179.47a32.25,32.25,0,0,0,8.41,1.1c37.15,0,82.26-60.76,104.36-143.23,23.79-88.81,11.89-169.16-26.6-179.47a32.14,32.14,0,0,0-8.41-1.1Z"/>
    </g>
    <line class="cls-6" x1="1340.41" y1="426.07" x2="1313.61" y2="418.89"/>
    <line class="cls-6" x1="1174.97" y1="378.87" x2="1148.17" y2="371.69"/>
  </g>
  <ellipse class="cls-4" cx="960" cy="771" rx="53" ry="73"/>
</svg>
