<svg id="Layer_1" data-name="Layer 1" xmlns="http://www.w3.org/2000/svg" xmlns:xlink="http://www.w3.org/1999/xlink" viewBox="0 0 200 200">
  <defs>
    <style>
      .cls-1 {
        fill: #cc3f37;
      }

      .cls-2 {
        fill: #fff;
      }

      .cls-3 {
        fill: url(#linear-gradient);
      }

      .cls-4 {
        fill: none;
        stroke: #000;
        stroke-miterlimit: 10;
        stroke-width: 4px;
      }

      .cls-5 {
        fill: url(#linear-gradient-2);
      }
    </style>
    <linearGradient id="linear-gradient" x1="-60.05" y1="89.38" x2="-94.84" y2="54.59" gradientTransform="translate(96.81 -18.6) rotate(-15)" gradientUnits="userSpaceOnUse">
      <stop offset="0" stop-color="#cce0f4"/>
      <stop offset="0" stop-color="#c3dcf2"/>
      <stop offset="0" stop-color="#a9d2ee"/>
      <stop offset="0" stop-color="#80c2e7"/>
      <stop offset="0" stop-color="#47acde"/>
      <stop offset="0" stop-color="#1e9cd7"/>
      <stop offset="0.45" stop-color="#0075be"/>
      <stop offset="0.99" stop-color="#005b97"/>
    </linearGradient>
    <linearGradient id="linear-gradient-2" x1="-63.91" y1="88.35" x2="-98.73" y2="53.53" gradientTransform="matrix(-0.97, -0.26, -0.26, 0.97, 99.19, -18.6)" xlink:href="#linear-gradient"/>
  </defs>
  <rect class="cls-1" width="200" height="200" rx="33.3"/>
  <g>
    <path d="M100.42,22a78,78,0,1,1-78,78,78.09,78.09,0,0,1,78-78m0-4a82,82,0,1,0,82,82,82,82,0,0,0-82-82Z" transform="translate(0 0)"/>
    <g>
      <g>
        <path class="cls-2" d="M51.22,118.27c-10.37,0-23.45-18.51-29.79-42.14C14.6,50.64,17.63,26.75,28,24a8.07,8.07,0,0,1,2-.26c10.37,0,23.45,18.51,29.78,42.15,6.83,25.49,3.81,49.38-6.61,52.17A7.56,7.56,0,0,1,51.22,118.27Z" transform="translate(0 0)"/>
        <path d="M30.07,21.69v4h0c8.15,0,21.12,15.55,27.85,40.66,3.37,12.57,4.43,24.88,3,34.67-1.23,8.38-4.29,14-8.18,15.06a5.84,5.84,0,0,1-1.51.19c-8.16,0-21.13-15.54-27.86-40.66C20,63.05,18.94,50.74,20.37,41c1.24-8.39,4.3-14,8.19-15.06a5.79,5.79,0,0,1,1.51-.2v-4m0,0a10,10,0,0,0-2.55.33c-11.67,3.13-15.26,27.59-8,54.63,6.73,25.11,20.44,43.62,31.72,43.62a9.89,9.89,0,0,0,2.54-.33c11.68-3.13,15.27-27.58,8-54.62C55.05,40.2,41.34,21.69,30.07,21.69Z" transform="translate(0 0)"/>
      </g>
      <g>
        <path class="cls-3" d="M47.84,102.59c-6,0-15-10.57-19.73-28.25-5-18.53-1.82-33.22,4.11-34.81a4.92,4.92,0,0,1,1.22-.16c6,0,15,10.57,19.74,28.25,5,18.54,1.82,33.22-4.11,34.81A4.56,4.56,0,0,1,47.84,102.59Z" transform="translate(0 0)"/>
        <path d="M33.45,37.37v4c4.45,0,13.11,9.31,17.79,26.77,2.26,8.4,3,16.61,2,23.12-.76,5.13-2.56,8.67-4.69,9.24a2.76,2.76,0,0,1-.71.09c-4.45,0-13.12-9.3-17.8-26.77-2.25-8.4-3-16.61-2-23.11.76-5.13,2.55-8.67,4.68-9.25a2.84,2.84,0,0,1,.72-.09v-4m0,0a6.81,6.81,0,0,0-1.74.23c-8,2.14-10.46,18.82-5.52,37.26,4.58,17.12,14,29.73,21.66,29.73a6.47,6.47,0,0,0,1.75-.23c8-2.14,10.46-18.82,5.52-37.25C50.52,50,41.16,37.37,33.44,37.37Z" transform="translate(0 0)"/>
      </g>
      <line class="cls-4" x1="20.61" y1="76.35" x2="26.18" y2="74.86"/>
      <line class="cls-4" x1="54.96" y1="66.55" x2="60.52" y2="65.06"/>
    </g>
    <g>
      <g>
        <path class="cls-2" d="M148.78,118.27a8,8,0,0,1-2-.26c-10.42-2.79-13.44-26.68-6.61-52.17,6.33-23.64,19.41-42.15,29.78-42.15a8.07,8.07,0,0,1,2,.26c10.41,2.8,13.44,26.69,6.61,52.18-6.33,23.63-19.42,42.14-29.78,42.14Z" transform="translate(0 0)"/>
        <path d="M169.93,25.69a5.79,5.79,0,0,1,1.51.2c3.89,1,6.95,6.67,8.19,15.06,1.43,9.79.37,22.1-3,34.66-6.73,25.12-19.7,40.66-27.86,40.66a5.84,5.84,0,0,1-1.51-.19c-3.89-1-7-6.68-8.18-15.06-1.44-9.79-.38-22.1,3-34.67,6.73-25.11,19.7-40.66,27.85-40.66m0-4c-11.27,0-25,18.51-31.71,43.63-7.25,27-3.66,51.49,8,54.62a9.89,9.89,0,0,0,2.54.33c11.28,0,25-18.51,31.72-43.62,7.24-27,3.65-51.5-8-54.63a10,10,0,0,0-2.55-.33Z" transform="translate(0 0)"/>
      </g>
      <g>
        <path class="cls-5" d="M152.16,102.59a4.61,4.61,0,0,1-1.23-.16c-5.93-1.59-9.07-16.27-4.11-34.81,4.74-17.68,13.76-28.25,19.73-28.25a4.93,4.93,0,0,1,1.23.16c3,.81,5.25,4.77,6.15,10.88,1,6.77.28,15.27-2,23.93-4.74,17.68-13.75,28.25-19.73,28.25Z" transform="translate(0 0)"/>
        <path d="M166.56,41.37a2.82,2.82,0,0,1,.71.09c4.32,1.16,7.52,14.34,2.69,32.36-4.68,17.47-13.35,26.77-17.8,26.77a2.76,2.76,0,0,1-.71-.09c-2.13-.57-3.93-4.11-4.69-9.24-1-6.51-.26-14.72,2-23.12,4.68-17.46,13.34-26.77,17.8-26.77m0-4c-7.72,0-17.08,12.62-21.67,29.74-4.94,18.43-2.47,35.11,5.52,37.25a6.47,6.47,0,0,0,1.75.23c7.71,0,17.07-12.61,21.66-29.73,4.94-18.44,2.47-35.12-5.52-37.26a6.81,6.81,0,0,0-1.74-.23Z" transform="translate(0 0)"/>
      </g>
      <line class="cls-4" x1="179.39" y1="76.35" x2="173.82" y2="74.86"/>
      <line class="cls-4" x1="145.04" y1="66.55" x2="139.48" y2="65.06"/>
    </g>
    <ellipse class="cls-2" cx="100.42" cy="147.95" rx="11" ry="15.15"/>
  </g>
</svg>
