<svg id="Sparkles" xmlns="http://www.w3.org/2000/svg" viewBox="0 0 160.04 164.23">
  <g>
    <path d="M20,61.26a14.31,14.31,0,0,1,.2-3.29,5.15,5.15,0,0,1,3.91-3.72c1.83-.45,3.68-.83,5.5-1.35A27.7,27.7,0,0,0,42.4,45.33c5.39-5.65,7.79-12.66,10-19.83.05-.16.08-.33.12-.48,2.16-7,4.7-8,12.09-6.58a5.29,5.29,0,0,1,3.61,3.22c1.59,3.33,2.26,7,3.28,10.46,1.91,6.58,5.25,12.23,10.79,16.36,2.68,2,5.91,3,8.94,4.36a38.83,38.83,0,0,0,6.65,2.08,5.26,5.26,0,0,1,4.4,4.76,14.39,14.39,0,0,1-.27,5.78,5.62,5.62,0,0,1-4.19,3.92c-4.14,1.26-8.38,2.36-12,4.74-5.09,3.32-9.55,7.31-12.55,12.79a84.45,84.45,0,0,0-5,12.32c-1.58,4.38-4.11,5.19-8.33,4.85s-5.24-1.84-6.47-5.77C51.79,93,50.27,87.68,46.77,83.19A34.65,34.65,0,0,0,33.93,72.9q-4.82-2.27-9.76-4.22c-2.54-1-4.36-2.66-4.07-5.76A10.3,10.3,0,0,0,20,61.26Zm.83.39c-.17,2.63.35,5.12,3.39,6.14a84.36,84.36,0,0,1,11,4.66,33.42,33.42,0,0,1,16.39,17.4c1.35,3.28,2.35,6.7,3.53,10.05s3.77,3.5,7.18,3.28c3.1-.19,4.31-1.31,5.17-4.27,1.31-4.55,2.78-9.08,5.32-13.07,5.4-8.45,12.83-14.24,22.75-16.69,4.93-1.22,5.85-2.24,6.07-6.91.15-3.41-.93-5.72-3.38-6.27a70.25,70.25,0,0,1-11.31-3.89A26.39,26.39,0,0,1,74.86,42c-3.31-4.92-4.48-10.69-6.11-16.28-.81-2.79-1.48-5.82-5-6.56A16.48,16.48,0,0,0,58.24,19a4.34,4.34,0,0,0-3.68,3c-1.66,4.76-3,9.61-5.05,14.25A33.16,33.16,0,0,1,38,50.32C34.06,53.07,29.46,54,24.9,54.93c-2.72.58-4,2.11-4.09,4.88C20.79,60.37,20.81,60.92,20.81,61.65Z" transform="translate(-19.98 -17.89)"/>
    <path d="M80.24,95.89c5.24,0,7.29,1.84,8.92,7.58,1.18,4.16,2.14,8.39,4,12.33,2.71,5.79,6.77,10.3,12.64,12.9a76.29,76.29,0,0,0,11,4.12c4.54,1.2,5.28,3.17,5.07,7.54-.23,5-1.5,6.16-6.6,7.57a39.43,39.43,0,0,0-10.54,4.43c-8.13,5.09-13.26,12.41-15.91,21.57a35.12,35.12,0,0,1-1.19,3.45c-1.74,4.36-4,4.84-7.67,4.72-4.21-.14-5.76-1.78-7-5.82-1.53-4.79-2.86-9.67-5.81-13.9a35.61,35.61,0,0,0-14.6-12c-2.92-1.36-5.9-2.55-8.9-3.7-3.91-1.51-4.69-4.12-4.38-8.57.29-4.19,2.05-5.74,6.46-6.49a29.21,29.21,0,0,0,11.43-4.33,30.07,30.07,0,0,0,10.06-11.71c2.4-4.68,3.85-9.68,5.41-14.65C73.75,97.34,75.88,95.89,80.24,95.89ZM40.16,139.34c0,4.73,1.41,5.76,4.66,6.81a67.32,67.32,0,0,1,10.9,4.9A33.67,33.67,0,0,1,71.64,169.3c1.13,2.88,2,5.86,3,8.8a3.84,3.84,0,0,0,1.57,2.28,7.46,7.46,0,0,0,10.59-3.47c.38-1,.73-2,1-3a37.55,37.55,0,0,1,8.3-15.59,36,36,0,0,1,11.18-8.52,62,62,0,0,1,8.79-3.09c4.28-1.22,5-2.78,4.89-8.09,0-.33-.15-.65-.19-1a3.81,3.81,0,0,0-3.11-3.62,56.69,56.69,0,0,1-14.11-5.33c-6.71-3.81-10.93-9.75-13.1-17.14-.9-3.09-1.82-6.18-2.72-9.27s-2.72-5.2-6.37-5.55c-4.45-.42-7,.9-8.17,5.12a73.69,73.69,0,0,1-5.39,14.47c-4.16,8-10.26,13.53-19.23,15.55-1.51.34-3,.76-4.53,1.09-2.82.62-3.79,2.6-4,5.22C40.14,138.56,40.16,139,40.16,139.34Z" transform="translate(-19.98 -17.89)"/>
    <path d="M97.45,99.88c0-5.1,1-6.39,6-7.63.92-.23,1.84-.45,2.76-.65,9.12-2,15.3-7.59,19.3-15.87a74.61,74.61,0,0,0,4.93-13.41c.81-3.09,2.47-5.35,6-5.82,4.23-.56,8.47.47,10.06,5.18,1.41,4.2,2.24,8.58,4,12.7,3.14,7.52,8.17,13,15.95,16,3.33,1.27,6.72,2.29,10.06,3.48a4,4,0,0,1,2.86,2.59,13.06,13.06,0,0,1,.22,7.68c-.73,2.16-2.49,3.15-4.52,3.83-4.09,1.38-8.24,2.56-12,4.89a34.9,34.9,0,0,0-13.77,15.6,88.91,88.91,0,0,0-3.45,9.54,6.21,6.21,0,0,1-5.75,4.53c-3.82.42-6.7-.52-7.84-3a32.43,32.43,0,0,1-2.13-5.6,34.51,34.51,0,0,0-9.73-16.77A37.22,37.22,0,0,0,110,110.58c-2.47-1.13-5-2.18-7.54-3.09C98.64,106.15,97.45,104.27,97.45,99.88Zm41.08,41.68c5.24.15,5.51-1.28,6.77-5,1.62-4.8,3.14-9.59,6.08-13.79A36.14,36.14,0,0,1,168.68,109c2.5-.93,5.12-1.46,7.54-2.63a4.6,4.6,0,0,0,2.82-4,16.8,16.8,0,0,0-.16-4.64,3.93,3.93,0,0,0-3-3.25c-3.46-1-6.86-2.17-10.24-3.47C157.48,87.9,152.31,82,149.27,74c-1.41-3.67-2.3-7.53-3.46-11.29-1.28-4.17-2.76-5.31-7-5.45-4.62-.17-6.11.93-7.43,5.39-.75,2.5-1.51,5-2.36,7.46a39.18,39.18,0,0,1-9.16,15.29,25.58,25.58,0,0,1-14,7.19,27.35,27.35,0,0,0-4.19,1.06c-1.27.42-2.58,1-2.92,2.48a14.31,14.31,0,0,0-.48,5.42,5.63,5.63,0,0,0,4.09,4.89c6.21,2.27,12.35,4.77,17.44,9.15a31.31,31.31,0,0,1,8.7,11.22c1.41,3.3,2.51,6.75,3.69,10.15C133.6,141.06,134.26,141.56,138.53,141.56Z" transform="translate(-19.98 -17.89)"/>
  </g>
  <g>
    <path d="M97.11,62c0,1-.82,1.44-1.62,1.71-2,.68-4,1.29-6,1.93a37.5,37.5,0,0,0-20.42,16,53.44,53.44,0,0,0-5.79,13.6,11.44,11.44,0,0,1-.92,2.49,1.44,1.44,0,0,1-1.33.85,1.29,1.29,0,0,1-1.14-1c-.71-2.1-1.5-4.18-2.13-6.31C54.84,81.47,49.26,73.94,40.19,69a83.43,83.43,0,0,0-13.06-5.78c-1-.33-1.73-.89-1.69-2s1-1.36,1.85-1.6c3.67-1,7.48-1.45,11-3.2A33,33,0,0,0,53.82,39.93a110.23,110.23,0,0,0,5-13.95c.34-1.1.57-2.45,2-2.52s2.12,1.18,2.5,2.33c1,2.84,1.83,5.71,2.6,8.6C68,42.14,71.82,48.74,78.39,53.54c3.17,2.33,6.94,3.44,10.48,5a37,37,0,0,0,6.55,1.92C96.28,60.7,97,61,97.11,62Z" transform="translate(-19.98 -17.89)"/>
    <path d="M80.47,101.4a2.5,2.5,0,0,1,2.12,1.89A76,76,0,0,1,85.28,112c1.75,6.43,4.52,12.28,9.49,16.91a24.3,24.3,0,0,0,7.56,5.06c4.12,1.63,8.1,3.68,12.54,4.41.8.13,1.54.48,1.62,1.41a1.69,1.69,0,0,1-1.32,1.73c-2.09.74-4.22,1.34-6.32,2.07a37.71,37.71,0,0,0-22.52,20,60.18,60.18,0,0,0-4,10.77,5.73,5.73,0,0,1-.59,1.37,1.34,1.34,0,0,1-1.34.81,1.36,1.36,0,0,1-1.14-1.08c-.75-2.21-1.58-4.39-2.22-6.63a35.24,35.24,0,0,0-15-20.49,62.93,62.93,0,0,0-15-7,7.33,7.33,0,0,1-1.23-.49,1.67,1.67,0,0,1-.9-1.66,1.45,1.45,0,0,1,1.22-1.39c1.56-.4,3.12-.83,4.7-1.15,9.38-1.87,16.13-7.32,20.77-15.5a73.53,73.53,0,0,0,6.59-17C78.51,102.82,78.83,101.53,80.47,101.4Z" transform="translate(-19.98 -17.89)"/>
    <path d="M138.51,61.94a2.37,2.37,0,0,1,2.05,1.58A38.92,38.92,0,0,1,142.67,70a68.37,68.37,0,0,0,3.23,9.62,29.55,29.55,0,0,0,17.32,16.07c3.18,1.16,6.26,2.57,9.61,3.21.85.16,1.68.44,1.73,1.48a1.83,1.83,0,0,1-1.46,1.81c-2,.71-4.13,1.29-6.18,2a37.65,37.65,0,0,0-23.26,21.66,57.55,57.55,0,0,0-3.14,8.95,5,5,0,0,1-.43,1.08c-.33.64-.69,1.33-1.59,1.22s-1-.79-1.2-1.43c-1.45-4.13-2.47-8.41-4.46-12.35a35.2,35.2,0,0,0-14.54-15.55,85.52,85.52,0,0,0-13.8-6.15c-.9-.3-1.61-.86-1.51-1.93s.79-1.36,1.69-1.54c1.36-.27,2.7-.67,4.06-.94,10.28-2.11,17.31-8.26,22-17.47a85.18,85.18,0,0,0,5.68-15.45C136.7,63.11,137.12,62,138.51,61.94Z" transform="translate(-19.98 -17.89)"/>
  </g>
</svg>
