<svg id="Layer_1" data-name="Layer 1" xmlns="http://www.w3.org/2000/svg" viewBox="0 0 194.73 200">
  <defs>
    <style>
      .cls-1 {
        fill: #d8d8d8;
      }

      .cls-2 {
        fill: #d9d9d9;
      }

      .cls-3 {
        fill: #eee;
      }

      .cls-4 {
        fill: #dfdfdf;
      }

      .cls-5 {
        fill: #fff;
      }

      .cls-6 {
        fill: #646464;
      }
    </style>
  </defs>
  <g>
    <path class="cls-1" d="M26.33,148c0-6,2.39-8.52,8.38-9.58,10.81-1.9,19.13-7.45,24.51-17.26,3.5-6.37,5.73-13.18,7.69-20.12,1.12-4,5.72-6.45,10.27-6.16,6.14.4,8.5,4.33,9.94,9.49,1.14,4.08,2.15,8.23,3.65,12.18,3.78,9.93,10.63,16.77,20.83,20.26,3.5,1.2,6.94,2.48,10.51,3.47,3.3.91,5.08,4.2,5,8.36-.13,5.32-1.58,7.31-6.58,9.17-4.09,1.53-8.33,2.59-12.23,4.74A48.19,48.19,0,0,0,95.51,173c-5.21,5.86-7.77,13.07-9.87,20.38s-9.8,7.88-14.62,5.24c-2-1.08-2.69-3.12-3.42-5.09-1.6-4.29-2.63-8.77-4.69-12.9a38.34,38.34,0,0,0-14.58-16.08,84.8,84.8,0,0,0-16.69-7.64C28,155.63,26.33,152.64,26.33,148Z" transform="translate(-2.86 0)"/>
    <path class="cls-2" d="M126.3,78.19c3.15-3.19,4.72-7.3,6.58-11.25,2.14-4.53,3.3-9.39,4.84-14.12s6.23-6.38,10.56-5.64c6,1,8.56,4.17,10,11.22s3.71,13.69,8.15,19.39A29.34,29.34,0,0,0,180.17,88c2.6.89,5.11,2.07,7.66,3.12,2.14.75,4.48.85,6.48,2h0a1.06,1.06,0,0,1,0,1.51,1.2,1.2,0,0,1-1.12.31c-7.56-2.27-15.24-4.39-21.77-9-7.31-5.15-11.41-12.6-13.69-21.12-.93-3.45-1.94-6.88-3.13-10.25a8.6,8.6,0,0,0-12.34-4.32,5.69,5.69,0,0,0-2.17,2.84c-1.41,3.23-2.11,6.68-3.3,10-2.74,7.61-6.06,14.9-12.08,20.53A32.22,32.22,0,0,1,108,92.1a47.73,47.73,0,0,0-4.72,1.15,5.12,5.12,0,0,0-3.8,4c-1.13,4.49,0,8.54,5.18,10.22a80.73,80.73,0,0,1,14.15,6.43c8.42,4.61,14.1,11.51,17.83,20.2,1.47,3.42,2.31,7,3.63,10.51,1.92,5,6.27,6.59,11,4a5.16,5.16,0,0,0,2.38-3.15A120.91,120.91,0,0,1,158.4,133a42.75,42.75,0,0,1,18.7-20,48.47,48.47,0,0,1,12.39-4.83,16.44,16.44,0,0,0,3.35-1.42c.58-.29,1.1-.83,1.86-.53,1.47,1.61-.37,2-1.11,2.58-.57.45-1.49.47-2.12,1-5,1.81-10.14,3.14-14.7,6.07-8,5.15-14.08,11.83-17.49,20.8-1.3,3.4-2.45,6.85-3.6,10.3a7,7,0,0,1-6,4.82,24.18,24.18,0,0,1-5.24-.06c-2.67-.21-4.31-1.76-5.44-4.19-1.93-4.17-2.83-8.7-4.65-12.91a35.77,35.77,0,0,0-11.7-15.12,71.16,71.16,0,0,0-19.6-9.85c-4.42-1.43-6.23-4.36-6.5-9a14.27,14.27,0,0,1,1.25-6.38c.76-1.79,2.39-2.63,4.16-3.24,2.47-.85,5-1.21,7.55-1.91a30.27,30.27,0,0,0,16-10.27A2.94,2.94,0,0,1,126.3,78.19Z" transform="translate(-2.86 0)"/>
    <path class="cls-2" d="M42.91,8.57A10.32,10.32,0,0,1,59.13,2C61,3.24,61.8,5.12,62.59,7.07c1.36,3.32,1.92,6.87,3,10.29,2.28,7.5,5.82,14.17,12,19.21,3.35,2.72,7.31,4.2,11.21,5.86a77.83,77.83,0,0,0,9,3c4,1.18,5.22,2.77,5.46,7,.14,2.5.1,5-1.14,7.27A7.22,7.22,0,0,1,97.68,63c-4,1.33-8.13,2.37-11.94,4.33A46.3,46.3,0,0,0,71.43,78.94C66.28,85,64.18,92.54,61.54,99.8a7.51,7.51,0,0,1-5.21,5.14,13.13,13.13,0,0,1-6.41.12c-3.2-.71-5-3-6-6-.41-1.28-.7-2.6-1-3.9,1.15-.41,1.37.49,1.59,1.21a4.47,4.47,0,0,0,1.64,2.39c1.17,2.6,3,4.2,6,4.31,4.37.15,6.42-1.07,7.71-5.25A92.38,92.38,0,0,1,65,84.66,42.46,42.46,0,0,1,77.3,69.94a43.14,43.14,0,0,1,17-8.14c.46-.11.91-.25,1.36-.4,5.29-1.68,6.32-5,4.91-11A3.64,3.64,0,0,0,98.24,48a49.13,49.13,0,0,0-5-1.55C86.5,44.24,79.78,41.93,74.46,37a34.89,34.89,0,0,1-7.07-9c-3-5.47-4.15-11.49-6-17.32a24.86,24.86,0,0,0-2.07-5A5.1,5.1,0,0,0,56.64,3.3a12,12,0,0,0-7.15-.24c-2.12.52-3,2.32-4,4C44.52,7.41,44.34,9.05,42.91,8.57Z" transform="translate(-2.86 0)"/>
    <path class="cls-1" d="M42.91,8.57c.82-.49.8-1.49,1.34-2.15,0,0,.12,0,.17,0a.44.44,0,0,1,.13.14,1.3,1.3,0,0,1,.62,1.72c-2.43,8.74-5.35,17.27-11,24.58A33.75,33.75,0,0,1,15.81,45c-2.08.57-4.18,1-6.29,1.45-2.86.61-4.23,2.29-4.44,5.22,0,.48,0,1,0,1.42,0,4.84,1.09,6.11,5.7,7.74,7.71,2.74,15.18,6.13,21.33,11.64a39.34,39.34,0,0,1,11,16.5c1,2.8,1.87,5.63,2.86,8.43.31.89.46,1.71-.55,2.27-1-.46-1.07-1.47-1.33-2.36a3.5,3.5,0,0,0-1.13-2.09c-1.1-3.32-2.48-6.53-3.88-9.74C37.1,81,34,77.53,30.52,74.3c-5.95-5.62-13.4-8.68-20.89-11.55-5.27-2-6.64-3.61-6.76-9.21-.16-7.39,2.18-8.6,9.63-10.09a33.27,33.27,0,0,0,16-7.81,38.7,38.7,0,0,0,10-14.53C40.11,17,41.35,12.72,42.91,8.57Z" transform="translate(-2.86 0)"/>
    <path class="cls-3" d="M126.3,78.19c-3.22,5.38-8.4,8.19-13.9,10.54-3.06,1.31-6.4,1.59-9.59,2.43-2.76.73-4.74,2.11-5.24,5.15-.71,4.31-1.15,8.63,2.92,11.59,2.23,1.63,5.09,2.09,7.63,3.15a63.46,63.46,0,0,1,13.14,7,10.6,10.6,0,0,1,1.4,1.44c-2.68-1-5-2.68-7.41-4.11a50.79,50.79,0,0,0-11.4-5c-6.3-1.85-9.34-8-7.15-14.35,1.75-5,6-5.71,10.16-6.77,5.85-1.5,11.51-3.2,15.69-8A9.07,9.07,0,0,1,126.3,78.19Z" transform="translate(-2.86 0)"/>
    <path class="cls-4" d="M193.91,94.38c.13-.4.26-.81.4-1.21a4.18,4.18,0,0,1,2.83,3.58c.4,2.66.79,5.31,0,8a6.71,6.71,0,0,1-5.66,5,4.18,4.18,0,0,1,1.95-1.3c.8-.38,1.56-.83,1.29-1.94a1.48,1.48,0,0,1-.36-1.3c.83-3.49,1.12-7-.62-10.3C193.65,94.77,193.8,94.55,193.91,94.38Z" transform="translate(-2.86 0)"/>
    <path class="cls-4" d="M194.31,93.17c-2.17-.66-4.44-1-6.48-2C190.08,91.53,192.45,91.53,194.31,93.17Z" transform="translate(-2.86 0)"/>
    <path class="cls-5" d="M27.55,148.1c0-5.21,1.47-7.26,6.59-8.35s10.32-2.52,14.92-5.41A31.78,31.78,0,0,0,59.73,123a79,79,0,0,0,8-20.44c1.15-4.67,4.78-6.76,9.56-6.38s6.88,3.16,8.18,7.16c1.88,5.76,3,11.74,5.67,17.26a32.15,32.15,0,0,0,18.25,16.77c4.1,1.54,8.17,3.11,12.41,4.26a4.83,4.83,0,0,1,3.69,4.09c1.2,7-.54,10-7.4,11.69a44.63,44.63,0,0,0-21.47,12.3,43.12,43.12,0,0,0-10.12,17.08c-.73,2.17-1.51,4.33-2.17,6.52-1.44,4.78-4.78,6-9.69,5.35-3-.38-4.69-2-5.69-4.92-1.42-4.14-2.47-8.41-4.32-12.41a39.07,39.07,0,0,0-16.81-18.5A98.25,98.25,0,0,0,33,156C28.67,154.5,27.56,152.72,27.55,148.1Z" transform="translate(-2.86 0)"/>
    <path class="cls-5" d="M193.91,94.38a4.58,4.58,0,0,1,2,4.33c-.11,2.66.44,5.41-1.24,7.82-2.35,2.29-5.54,2.65-8.46,3.61-13.25,4.35-22.76,12.73-28,25.77-1.34,3.32-2.48,6.7-3.59,10.1-.78,2.4-2.32,4-4.83,4.33-3.17.4-6.53,1.2-8.93-2a17,17,0,0,1-1.85-4.25c-1.49-3.75-2.34-7.73-4.09-11.41A40.43,40.43,0,0,0,116,113.49a112,112,0,0,0-12.81-5.5c-4.31-1.54-5.56-4.66-5.1-8.59.55-4.72.64-6.11,6.31-7.54,4.49-1.13,9-1.94,13.19-4.31a34.29,34.29,0,0,0,10.24-9c4.52-5.75,7-12.53,9.14-19.45.71-2.33,1.51-4.62,2.36-6.89a5.15,5.15,0,0,1,4.28-3.56,21.82,21.82,0,0,1,3.61-.42c4.71.13,7.29,2.21,8.61,6.76s2.62,9.21,4.21,13.72c2.7,7.68,7.27,14.05,14.48,18.06a64,64,0,0,0,14.22,5.76A31.3,31.3,0,0,1,193.91,94.38Z" transform="translate(-2.86 0)"/>
    <path class="cls-5" d="M45.37,99.64c-2.38-8.46-5-16.7-11.1-23.52-4.78-5.36-10.79-8.61-17.07-11.58a74.17,74.17,0,0,0-8.62-3.46c-3.25-1.06-4.45-3-4.5-6.42,0-.34,0-.68,0-1,0-6.24,1.38-7.58,7.58-8.7,12.83-2.33,21.77-9.67,27.07-21.57A97,97,0,0,0,44.55,6.58c2-5,6.15-5.29,10.6-4.79,3.27.37,5,2.51,6.14,5.43,1.9,5,2.81,10.27,4.69,15.25A33.55,33.55,0,0,0,86.79,43.08c3.35,1.23,6.71,2.39,10.15,3.36,4.14,1.16,5.38,3.37,5.24,7.87-.17,5.47-2.49,7.1-7.57,8.43a47,47,0,0,0-18.77,9.8c-7.28,6.1-11.1,14-14,22.69-.52,1.53-.92,3.11-1.54,4.59A6.44,6.44,0,0,1,54,104.07c-3.25,0-6.45,0-8.07-3.59A6.46,6.46,0,0,0,45.37,99.64Z" transform="translate(-2.86 0)"/>
    <path class="cls-6" d="M76.49,193c-1.13-.18-1.18-1.07-1.45-1.82-1.84-5.06-3-10.36-5.54-15.17-4.16-8-9.89-14.47-18-18.85a109.15,109.15,0,0,0-16.41-7.28c-1-.36-1.83-1-1.71-2.18s1-1.42,2-1.66c5.41-1.32,10.89-2.28,15.86-5.19a39.79,39.79,0,0,0,15.65-17,100.51,100.51,0,0,0,6.71-18c.18-.65.34-1.31.57-1.94a2.42,2.42,0,0,1,2-1.84,2.28,2.28,0,0,1,2.26,1.42c1.54,2.74,2.08,5.83,2.94,8.8A75.79,75.79,0,0,0,85.1,123.4c4.21,9.08,10.72,15.71,20.21,19.31,4.28,1.63,8.46,3.53,13,4.33.86.15,1.55.58,1.61,1.55a1.72,1.72,0,0,1-1.36,1.79c-2.42.83-4.86,1.59-7.29,2.4-13.72,4.57-23.37,13.56-29,26.86a77.12,77.12,0,0,0-3.72,10.68C78.24,191.49,77.83,192.67,76.49,193Z" transform="translate(-2.86 0)"/>
    <path class="cls-6" d="M190.57,100.87c-.29,1.4-1.55,1.72-2.67,2.09-2.23.76-4.52,1.34-6.75,2.11a45.9,45.9,0,0,0-27.8,25.45,67.56,67.56,0,0,0-4.21,11.79,6.72,6.72,0,0,1-.6,1.5c-.36.67-.84,1.29-1.72,1.15s-.93-.85-1.16-1.5c-1.56-4.23-2.66-8.62-4.41-12.78a42.41,42.41,0,0,0-16-19.6,81.3,81.3,0,0,0-18.77-8.88,9.7,9.7,0,0,1-1.5-.58,1.81,1.81,0,0,1-1-1.85,1.63,1.63,0,0,1,1.39-1.53c1.83-.47,3.65-1,5.5-1.33,12.3-2.42,20.74-9.78,26.41-20.64A100.65,100.65,0,0,0,144.46,57c.35-1.25.65-2.63,2.23-2.79s2.39,1.21,2.81,2.46c1.14,3.45,2.2,6.94,3.14,10.45,2.51,9.4,7,17.58,15,23.34,5.36,3.84,11.61,5.95,17.87,7.88,1.16.36,2.35.59,3.54.86A1.71,1.71,0,0,1,190.57,100.87Z" transform="translate(-2.86 0)"/>
    <path class="cls-6" d="M52.86,7.41c1.54.22,2.17,1.48,2.58,2.75,1.16,3.66,2.23,7.36,3.27,11.06,2.58,9.16,7.1,17.09,15,22.65C78.94,47.54,85,49.58,91,51.51c1.28.41,2.62.64,3.92,1A1.61,1.61,0,0,1,96.36,54a1.66,1.66,0,0,1-1.08,1.56c-2.09,1.17-4.47,1.5-6.7,2.22C73.11,62.77,62.84,73,57.37,88.22a69.21,69.21,0,0,0-2.4,7.3,6,6,0,0,1-.9,2c-.82,1.17-1.92,1.06-2.41-.29-1-2.66-1.89-5.34-2.72-8C45.32,77.42,38.52,68.29,27.5,62.31a118.47,118.47,0,0,0-15.85-7.05c-1-.37-1.92-.83-1.87-2.06s1-1.59,2.06-1.84c5.5-1.3,11-2.32,16-5.3A39.22,39.22,0,0,0,42.67,30.4,91.17,91.17,0,0,0,49.9,11.55a27.19,27.19,0,0,1,.9-2.68A2.1,2.1,0,0,1,52.86,7.41Z" transform="translate(-2.86 0)"/>
  </g>
</svg>
